<svg xmlns="http://www.w3.org/2000/svg" viewBox="0 0 200 200"><defs><style>.cls-1{fill:#fff;}</style></defs><g id="Layer_2" data-name="Layer 2"><g id="Layer_1-2" data-name="Layer 1"><path class="cls-1" d="M188.89,0H11.11A11.11,11.11,0,0,0,0,11.11V188.89A11.12,11.12,0,0,0,11.11,200H188.89A11.11,11.11,0,0,0,200,188.89V11.11A11.1,11.1,0,0,0,188.89,0ZM65,160H40V75H65ZM52.42,65h-.14C44.83,65,40,59.44,40,52.49S45,40,52.57,40,64.86,45.4,65,52.5C65,59.44,60.17,65,52.42,65ZM160,160H135V114.51c0-11-6.13-18.49-16-18.49-7.5,0-11.56,5.06-13.54,10-.71,1.74-.5,6.58-.5,9v45H80V75h25V88.08C108.61,82.5,114.25,75,128.69,75,146.58,75,160,86.25,160,111.37Z"/></g></g></svg>