<?xml version="1.0" encoding="utf-8"?>
<!-- Generator: Adobe Illustrator 26.2.1, SVG Export Plug-In . SVG Version: 6.00 Build 0)  -->
<svg version="1.1" id="Layer_1" xmlns="http://www.w3.org/2000/svg" xmlns:xlink="http://www.w3.org/1999/xlink" x="0px" y="0px"
	 viewBox="0 0 26.8 45.6" style="enable-background:new 0 0 26.8 45.6;" xml:space="preserve">
<style type="text/css">
	.st0{fill:#FFFFFF;}
</style>
<g id="Layer_2_00000088127238627748214820000016808664271881102526_">
	<g id="HOME">
		<g id="key_research_papers">
			<g id="Layer_17">
				<path class="st0" d="M26.8,22.8c0-0.7-0.3-1.3-0.7-1.8L5.8,0.7C5.3,0.3,4.7,0,4,0C3.3,0,2.7,0.3,2.2,0.7L0.7,2.2
					c-1,1-1,2.6,0,3.5l17.1,17.1l-17,17.1c-1,1-1,2.5,0,3.5c0,0,0,0,0,0l1.5,1.5c1,1,2.6,1,3.5,0l20.3-20.3
					C26.5,24.1,26.8,23.5,26.8,22.8z"/>
			</g>
		</g>
	</g>
</g>
</svg>
