<svg xmlns="http://www.w3.org/2000/svg" viewBox="0 0 26.81 45.63"><defs><style>.cls-1{fill:#6cb156;}</style></defs><g id="Layer_2" data-name="Layer 2"><g id="HOME"><g id="key_research_papers" data-name="key research papers"><g id="Layer_17" data-name="Layer 17"><path class="cls-1" d="M26.81,22.83a2.53,2.53,0,0,0-.73-1.78L5.75.73A2.45,2.45,0,0,0,4,0,2.49,2.49,0,0,0,2.22.73L.73,2.22a2.5,2.5,0,0,0,0,3.53L17.8,22.83.75,39.88a2.49,2.49,0,0,0,0,3.53L2.24,44.9a2.5,2.5,0,0,0,3.53,0L26.08,24.6A2.49,2.49,0,0,0,26.81,22.83Z"/></g></g></g></g></svg>