<svg xmlns="http://www.w3.org/2000/svg" viewBox="0 0 157.77 200"><defs><style>.cls-1{fill:#ec1c24;}.cls-2{fill:#cda253;}.cls-3{fill:#fff;}.cls-4{fill:#312b70;}</style></defs><g id="Layer_2" data-name="Layer 2"><g id="Layer_1-2" data-name="Layer 1"><path class="cls-1" d="M138.84,192.09a256.73,256.73,0,0,1-119.94,0v-20a257,257,0,0,0,119.94,0Z"/><path class="cls-2" d="M138.65,191.27a257.2,257.2,0,0,1-119.55,0l.65.82v-20L18.7,173A259,259,0,0,0,139,173l-1-.82v20Zm0-20a257.47,257.47,0,0,1-119.55,0l-1-.25v21.69l.64.15a259,259,0,0,0,120.34,0l.65-.15V171.07Z"/><path class="cls-1" d="M18.91,172.12a5,5,0,0,0,3.14-2.6s.88-1.47-1.37-3.26c-3.91-3.11-8.84-4.55-13.71-5.32-1.36-.22-2.72-.49-4-.83a13.25,13.25,0,0,1-1.31-.37,2.06,2.06,0,0,0,0,.89,11.41,11.41,0,0,0,.55,2,12.72,12.72,0,0,0,1.4,2.87,15.41,15.41,0,0,0,3,3.3,49.33,49.33,0,0,0,4.8,3.49,2.62,2.62,0,0,0,.64.42l.64.16a14.82,14.82,0,0,0-10.29,7.49l-1,1.71a58.3,58.3,0,0,1,17.45,5Z"/><path class="cls-2" d="M19.13,172.94a5.8,5.8,0,0,0,3.71-3.13l-.07.15c.05-.09,1.24-2.13-1.56-4.36-3.49-2.77-8-4.52-14.11-5.5-1.43-.22-2.73-.49-4-.81-.45-.11-.86-.22-1.24-.35L1,158.65l-.23.88a2.72,2.72,0,0,0,0,1.24,12.47,12.47,0,0,0,.58,2.12,14.41,14.41,0,0,0,1.49,3.05A16.44,16.44,0,0,0,6,169.43,50.6,50.6,0,0,0,10.89,173l.13.1a2.22,2.22,0,0,0,.77.44l.64.16.09-1.65A15.52,15.52,0,0,0,1.6,180l-.95,1.69L0,182.78l1.31.11a58.33,58.33,0,0,1,17.17,4.89l1.19.54V187l.08-14.89Zm.05,13.31a58.53,58.53,0,0,0-17.73-5l.67,1.25,1-1.7a14.07,14.07,0,0,1,9.68-7.07l.09-1.65-.65-.17a.14.14,0,0,1,.07,0l-.2-.15-.25-.19a48.43,48.43,0,0,1-4.71-3.42A14.62,14.62,0,0,1,4.28,165,12.7,12.7,0,0,1,3,162.33a11.47,11.47,0,0,1-.51-1.85,1.4,1.4,0,0,1,0-.52l-1.08.58c.44.15.88.27,1.37.39,1.3.33,2.65.61,4.13.84,5.83.93,10.06,2.57,13.32,5.15,1.59,1.27,1.17,2.15,1.15,2.19l0,0a.26.26,0,0,0,0,.07,4.17,4.17,0,0,1-2.57,2.09l-.62.17v.64L18,187Z"/><path class="cls-1" d="M138.86,172.12a5,5,0,0,1-3.14-2.6s-.88-1.47,1.37-3.26c3.91-3.11,8.84-4.55,13.71-5.32,1.36-.22,2.72-.49,4.06-.83.44-.11.88-.22,1.3-.37a2.06,2.06,0,0,1,0,.89,11.41,11.41,0,0,1-.55,2,12.72,12.72,0,0,1-1.4,2.87,15.41,15.41,0,0,1-3,3.3,48.14,48.14,0,0,1-4.8,3.49,2.62,2.62,0,0,1-.64.42l-.64.16a14.82,14.82,0,0,1,10.29,7.49l1,1.71a58.3,58.3,0,0,0-17.45,5Z"/><path class="cls-2" d="M139.08,171.31h0a4.17,4.17,0,0,1-2.57-2.09l0-.07-.05-.07s-.42-.89,1.17-2.16c3.26-2.58,7.49-4.22,13.32-5.15,1.49-.23,2.84-.51,4.13-.84.49-.12.93-.24,1.37-.39l-1.08-.58a1.4,1.4,0,0,1,0,.52,11.2,11.2,0,0,1-.51,1.85A12.93,12.93,0,0,1,153.5,165a14.93,14.93,0,0,1-2.84,3.12,48.22,48.22,0,0,1-4.72,3.43l-.24.18-.2.15a.14.14,0,0,1,.07,0l-.65.17.09,1.65a14.07,14.07,0,0,1,9.66,7l1,1.73.67-1.25a58.53,58.53,0,0,0-17.73,5l1.19.76-.08-14.89v-.64Zm.21,16.47a58.33,58.33,0,0,1,17.17-4.89l1.31-.11-.65-1.14-1-1.71A15.5,15.5,0,0,0,145.25,172l.09,1.65.64-.16a2.13,2.13,0,0,0,.77-.44l.13-.1a51.84,51.84,0,0,0,4.88-3.54,16.44,16.44,0,0,0,3.15-3.49,14.41,14.41,0,0,0,1.49-3.05,12.22,12.22,0,0,0,.58-2.12,2.87,2.87,0,0,0,0-1.24l-.23-.88-.86.29c-.38.13-.79.24-1.24.35-1.25.32-2.55.59-4,.81-6.13,1-10.61,2.73-14.11,5.5-2.8,2.23-1.61,4.27-1.56,4.36l-.07-.15a5.8,5.8,0,0,0,3.71,3.13l-.63-.81.08,14.89v1.3Z"/><path class="cls-3" d="M35.72,182.6c-1.92-.38-3.85-.78-5.77-1.21v6.41a.69.69,0,0,0,.56.77c.53.12,1.25-.27,2.16-1.19a1.66,1.66,0,0,0,.42-1.09l-.29-.06a1.61,1.61,0,0,1-.86-.5,1.26,1.26,0,0,1-.37-.88,1.7,1.7,0,0,1,0-.28.88.88,0,0,1,1.18-.75,2.11,2.11,0,0,1,1.46,1.26,3,3,0,0,1,.27,1.15,2.7,2.7,0,0,1-.23,1.41,5.14,5.14,0,0,1-.82,1.13,3.6,3.6,0,0,1-2.27,1.15,1.58,1.58,0,0,1-1.1-.42,3.12,3.12,0,0,1-1-1.68q-.09-.39,0-6.64l-1.42-.33-.94-1.2c2.68.64,5.37,1.24,8.07,1.78Z"/><path class="cls-3" d="M39.63,183.33,38,183v10l-.92-1.17v-7.15a3.77,3.77,0,0,0-.07-.56,1.59,1.59,0,0,0-.2-.5,2.27,2.27,0,0,0-1.53-1.17l-.25,0-1-1.18a7.05,7.05,0,0,1,1.52.31A2.44,2.44,0,0,1,37,183.17c.1.23.25.64.44,1.25,0-.19-.13-.93-.28-2.24a18.47,18.47,0,0,1-.11-2l.37.38c0,.19,0,.36.07.52a2.77,2.77,0,0,0,.19.57,3.58,3.58,0,0,0,.29.45l.68.12C39,182.57,39.31,183,39.63,183.33Z"/><path class="cls-3" d="M50.58,185c-1.47-.19-2.94-.39-4.41-.61v.7a.39.39,0,0,1,.19,0,4,4,0,0,1,2.07,1.23,4.29,4.29,0,0,1,1.38,3.18,1.8,1.8,0,0,1-.43,1.15,1.25,1.25,0,0,1-1.14.4,1.43,1.43,0,0,1-1-.66,1.16,1.16,0,0,1-.23-.68,1.06,1.06,0,0,1,.54-.9,1.79,1.79,0,0,1,.56,0,1.32,1.32,0,0,1,.95.61s.05,0,.05-.17a2.61,2.61,0,0,0-.75-1.71,3.07,3.07,0,0,0-2.17-1.12v7.65l-.35-.39-.29-.89a5.62,5.62,0,0,0-.85-1.44,7,7,0,0,0-1.18-1.28,6.91,6.91,0,0,0-2.36-1.22c-.45-.61-.89-1.23-1.33-1.85a12.18,12.18,0,0,1,1.77-.92A15,15,0,0,1,45.19,185v-.75c-1.95-.3-3.91-.62-5.86-1l-1-1.15q5.61,1,11.27,1.78C50,184.27,50.27,184.64,50.58,185Zm-5.39,6.29v-5A11.13,11.13,0,0,0,43,187l-1.23.66A8.64,8.64,0,0,1,45.19,191.3Z"/><path class="cls-3" d="M54.6,185.48l-1.66-.19v10l-.93-1.1v-7.15a3.77,3.77,0,0,0-.07-.56,1.48,1.48,0,0,0-.2-.48A2.09,2.09,0,0,0,50.19,185l-.25,0-1-1.1a6,6,0,0,1,1.53.2A2.19,2.19,0,0,1,52,185.5c.1.22.25.62.45,1.22,0-.18-.13-.93-.29-2.22-.07-.63-.1-1.3-.11-2l.37.35c0,.18,0,.35.08.51a2.4,2.4,0,0,0,.18.57,4,4,0,0,0,.3.42l.68.08Z"/><path class="cls-3" d="M69.78,184.6l-1.66-1.3a6,6,0,0,0-3.41-1.3,3.3,3.3,0,0,0-1.87.39l-.47.28a4.68,4.68,0,0,0-.44.48c-.5.59-.72,1-.67,1.16s.25.57.37.85l1,.08,1,1c-.57,0-1.13-.08-1.7-.12v9.68l-1-1v-8.74L59.54,186l-1-1.07,2.51.22-.86-1a.67.67,0,0,1-.13-.46,1.36,1.36,0,0,1,.19-.78,6.58,6.58,0,0,1,.72-1,4.64,4.64,0,0,1,1.54-.9,3,3,0,0,1,1.27-.16,8.45,8.45,0,0,1,4,1.54A11.23,11.23,0,0,1,69.57,184Z"/><path class="cls-3" d="M72.38,186.71l-1.83-.06v9.89c-.17-.25-.33-.5-.5-.74a8.56,8.56,0,0,0-.69-1.35,5.62,5.62,0,0,0-1.86-1.83,6.42,6.42,0,0,0-2.46-.93l-1.24-1.82a19.54,19.54,0,0,1,2.38-1.34,24.39,24.39,0,0,1,3.39-1.27v-.65c-2.09-.09-4.18-.2-6.26-.35-.32-.35-.64-.69-1-1,3,.22,6,.38,9.06.48Zm-2.81,7.1v-5a17.37,17.37,0,0,0-3.73,1.73A8.32,8.32,0,0,1,69.57,193.81Z"/><path class="cls-3" d="M82.44,186.78l-1.63,0v9.78l-1-1q0-3,.08-6a2.76,2.76,0,0,0-.61-1.3c-.47-.68-.9-1-1.29-1a1.51,1.51,0,0,0-.63.23.62.62,0,0,0-.37.51l.74.58a1.63,1.63,0,0,1,.73,1.31c0,.36,0,.57-.12.65a.89.89,0,0,1-.46.43,1.53,1.53,0,0,1-.67.16,1.77,1.77,0,0,1-1.47-1,1.76,1.76,0,0,1-.63.77,1.53,1.53,0,0,1-.93.33c-.56,0-.94-.35-1.13-1A1.16,1.16,0,0,1,73,190a2,2,0,0,1,.8-1.51l.5-.39a.73.73,0,0,1,.38-.16,3.69,3.69,0,0,0-.55-.81,1.49,1.49,0,0,0-.86-.37l-1.21,0c-.32-.34-.65-.67-1-1l2,.06a2,2,0,0,1,1.19.4l.47.45a2,2,0,0,1,.55,1,3.69,3.69,0,0,1,.53-.86,2.94,2.94,0,0,1,1.42-.81,1.74,1.74,0,0,1,.43-.09c.28,0,.67.32,1.18.95.18.23.43.6.76,1.12a8,8,0,0,1,.65,1.12c-.1-1-.19-2.07-.28-3.11,0-.6-.06-1.2-.1-1.8.18.16.38.35.6.58a.8.8,0,0,1,.13.43,1.72,1.72,0,0,0,0,.29c.1.23.38.37.83.41Z"/><path class="cls-3" d="M80.65,197.3,80,197a3.07,3.07,0,0,0-3-2.21c-.22-.59-.45-1.17-.67-1.76.09-.07,1.25-.78,3.46-2.17h.82Zm-.85-1.8v-3.2a20.47,20.47,0,0,0-2.06,1.37,2.56,2.56,0,0,1,1.31.87Z"/><path class="cls-3" d="M92.34,184.38c-.56-.37-1.11-.75-1.66-1.13a5.41,5.41,0,0,0-3.41-.95,3.4,3.4,0,0,0-1.88.58l-.46.32a4.11,4.11,0,0,0-.45.53c-.5.63-.72,1-.67,1.22s.25.54.37.82l1,0,1,.95-1.7,0v9.69l-1-.92v-8.74l-1.43,0-1-1,2.52,0-.86-.89a.58.58,0,0,1-.14-.44,1.46,1.46,0,0,1,.2-.8,7,7,0,0,1,.72-1,5.72,5.72,0,0,1,1.54-1.05,3.16,3.16,0,0,1,1.27-.29,7.85,7.85,0,0,1,4,1.13,10,10,0,0,1,1.73,1.38Z"/><path class="cls-3" d="M94.93,186.23l-1.82.12v9.89l-.51-.69a7.41,7.41,0,0,0-.68-1.28,4.85,4.85,0,0,0-1.87-1.64A5.83,5.83,0,0,0,87.6,192l-1.25-1.69a23.32,23.32,0,0,1,2.39-1.59,29,29,0,0,1,3.39-1.61v-.65c-2.09.13-4.18.22-6.27.29l-1-.95c3-.08,6-.23,9.07-.43Zm-2.8,7.38v-5a19.37,19.37,0,0,0-3.73,2.11A7.22,7.22,0,0,1,92.13,193.61Z"/><path class="cls-3" d="M104,185.4c-2.44.27-4.87.51-7.31.7v4a5.88,5.88,0,0,0,.68-.61c.59-.56.93-.89,1-1a12.41,12.41,0,0,1,2.64-1.69l1.69,1.07a10.62,10.62,0,0,0-1.14,3.28,9.16,9.16,0,0,0-.1,2.23,15.54,15.54,0,0,0,.29,2l-.66-.26c-.09-.37-.17-.75-.25-1.12a13.35,13.35,0,0,1-.33-2.48,10.14,10.14,0,0,1,.31-2.8A6.29,6.29,0,0,0,98.89,190a7.77,7.77,0,0,0-2,2.84l-1.31-1.22v-5.46l-1,.07-1-.9q4.69-.32,9.37-.82Z"/><path class="cls-3" d="M106.52,186.29a6.43,6.43,0,0,0,0,1,11.92,11.92,0,0,0,.22,1.91c.07.4.18,1,.33,1.78a8,8,0,0,1,.07.91,3.49,3.49,0,0,1-1.65,2.82,2.8,2.8,0,0,1-1.18.61.42.42,0,0,1-.47-.29c0-.13.05-.24.29-.34a2.42,2.42,0,0,0,.64-.28,5,5,0,0,0,.76-.76,3.21,3.21,0,0,0,.35-1.32,6.22,6.22,0,0,0-.33-1.76,9.2,9.2,0,0,1-.39-2.08,4.42,4.42,0,0,1,.53-2l.91-1.35-2.72.32-1-.87c1.61-.17,3.21-.36,4.82-.57l1,.76-.39,0a2.18,2.18,0,0,0-1.14.51A1.66,1.66,0,0,0,106.52,186.29Z"/><path class="cls-3" d="M112.63,184.25l-1.65.24v10l-.92-.86v-7.15A2.81,2.81,0,0,0,110,186a1.07,1.07,0,0,0-.2-.43,1.56,1.56,0,0,0-1.54-.67l-.26,0-1-.85a6.32,6.32,0,0,1,1.54-.2A1.55,1.55,0,0,1,110,185a9.34,9.34,0,0,1,.45,1.1c0-.18-.13-.89-.29-2.15a17.59,17.59,0,0,1-.1-2l.36.25c0,.18,0,.35.08.5a2,2,0,0,0,.18.51,2,2,0,0,0,.3.35l.68-.1C112,183.69,112.31,184,112.63,184.25Z"/><path class="cls-3" d="M122.52,182.48l-1.62.32v9.84l-1-.76v-5.31a1,1,0,0,0-.45-.8,1,1,0,0,0-.92-.19.9.9,0,0,0-.52.48,1.14,1.14,0,0,0-.13.7c0,.15.06.31.08.46l-.4.23c0-.07,0-.21-.2-.42a2.36,2.36,0,0,0-.54-.63,1.61,1.61,0,0,0-1.36-.29,2.05,2.05,0,0,0-1.09.54,2,2,0,0,0-.61,1.06,1.91,1.91,0,0,0-.06.41c0,.72.42,1.09,1.27,1.09a1.06,1.06,0,0,1-.27-.7,1.13,1.13,0,0,1,.33-.78,1.33,1.33,0,0,1,.75-.44.88.88,0,0,1,1,.65,1.35,1.35,0,0,1,.16.93,1.75,1.75,0,0,1-1.45,1.16,2.63,2.63,0,0,1-1.47-.12,2,2,0,0,1-1.26-2.1,3.58,3.58,0,0,1,.52-1.88,2.28,2.28,0,0,1,1.57-1.14,2.08,2.08,0,0,1,1.79.44c.12.13.24.25.35.38a1.43,1.43,0,0,1,.44-.8,1.33,1.33,0,0,1,.74-.54,1.29,1.29,0,0,1,.9.18,3.8,3.8,0,0,0,.33.37,1.76,1.76,0,0,1,.48.81V183q-3.74.71-7.49,1.27l-1-.83c3.37-.49,6.73-1.07,10.08-1.72C121.85,182,122.18,182.22,122.52,182.48Z"/><path class="cls-3" d="M131.12,180.62l-1.54.37v9.86l-.4-.34c-.09-.18-.23-.44-.42-.79a4.63,4.63,0,0,0-1.13-1.24,3.9,3.9,0,0,0-1.55-.72,5.7,5.7,0,0,0-1.67.09l-1.29-1.37c.62-.74,1.21-1.4,1.79-2,.31-.32.66-.66,1.06-1a1.84,1.84,0,0,0-.41-.27,3.15,3.15,0,0,0-1.44-.1,1.81,1.81,0,0,1-1.67-.5l-1-.81c2.91-.57,5.8-1.19,8.69-1.87C130.45,180.13,130.78,180.38,131.12,180.62ZM125.8,191a.9.9,0,0,1-.75-.15.76.76,0,0,1-.32-.66,1.17,1.17,0,0,1,.28-.75,1.15,1.15,0,0,1,.68-.45.93.93,0,0,1,.75.14.76.76,0,0,1,.32.65,1.2,1.2,0,0,1-.29.77A1.09,1.09,0,0,1,125.8,191Zm2.81-2.45v-7.35c-1.15.26-2.31.52-3.47.76a6.38,6.38,0,0,1,1,.54,13.52,13.52,0,0,1,1.32,1.2,14,14,0,0,1-1,1.15q-.33.34-1.29,1.65a7.55,7.55,0,0,1,1,.19A4.61,4.61,0,0,1,128.61,188.56Z"/><path class="cls-4" d="M138.7,0H17.38V78.94h0v65.51a18.73,18.73,0,0,0,18.71,18.71H62a21.26,21.26,0,0,1,9.95,2.41H85.83a21.3,21.3,0,0,1,10-2.41h25.89a18.72,18.72,0,0,0,18.7-18.71V0Z"/><path class="cls-2" d="M138.7,0H17.38V78.94h0v65.51a18.73,18.73,0,0,0,18.71,18.71H62a20.09,20.09,0,0,1,11.62,3.46l0,0a10.09,10.09,0,0,1,2.43,2.51,19.8,19.8,0,0,1,2.65,5.13l.14.47.17-.47a19.57,19.57,0,0,1,2.69-5.19,9.3,9.3,0,0,1,1.64-1.83,8.94,8.94,0,0,1,1.29-1,20.49,20.49,0,0,1,11.13-3.12h25.89a18.72,18.72,0,0,0,18.7-18.71V0ZM77.2,165.34c-3.36-3.31-8.9-5.52-15.2-5.55H36.09a15.35,15.35,0,0,1-15.33-15.33V80.63H77.2ZM137,96.17v48.29a15.35,15.35,0,0,1-15.33,15.33H95.78c-6.31,0-11.85,2.24-15.21,5.56V80.63H137Zm0-18.91H20.76V3.38H137Z"/><path class="cls-3" d="M36.64,34.52a12.35,12.35,0,0,0-3,5.5,9.72,9.72,0,0,0-.37,3.62c0,.33.08.65.12,1A13.91,13.91,0,0,0,33.9,46c.29.67.49,1,.6.95s.47-.32.71-.48c.09-.64.19-1.28.31-1.9.63-.84,1.28-1.63,1.94-2.37-.29,1.2-.54,2.43-.75,3.7L46.3,47.8c-.56.65-1.11,1.33-1.64,2.07l-8.33-1.08c-.08.85-.15,1.71-.2,2.58-.52,1-1,2-1.48,3,0-1.84.09-3.62.25-5.35-.5.85-.88,1.3-1.17,1.27a1,1,0,0,1-.87-.54,9,9,0,0,1-1-2.34,14.54,14.54,0,0,1-.38-3.06,11.49,11.49,0,0,1,.29-2.91A17.59,17.59,0,0,1,35.51,34a13.63,13.63,0,0,1,2.78-2.37l1.63-.08A36.2,36.2,0,0,0,36.64,34.52Z"/><path class="cls-3" d="M44.17,34.77v-.11a1.67,1.67,0,0,1,.07,1,4.46,4.46,0,0,1-.36,1.22,3.77,3.77,0,0,1-1.55,1.8,4.21,4.21,0,0,1,0,2.74c-.32,1.07-.85,1.68-1.66,1.85a.86.86,0,0,1-.42,0c-.64-.17-1.08-.91-1.26-2.22,0-.18-.07-.53-.12-1.06a8,8,0,0,0-.65.48A4.14,4.14,0,0,0,37.49,42c.25-.86.06-.27-.39,1.93q-1,1.17-1.86,2.49a49.41,49.41,0,0,1,1-4.93,6.15,6.15,0,0,1,1.07-2.29A10.65,10.65,0,0,1,38.73,38a5.57,5.57,0,0,1,0-3.54,6.52,6.52,0,0,1,.27-.86c.36-.76,1.54-1.58,3.5-2.17l.24,0L41,30.6l-2.1-1a14.68,14.68,0,0,1,1.78-1.1.76.76,0,0,1,.67.05l.14.09c.19,0,.5-.33.94-.88.84-.4,1.69-.75,2.54-1.07-.66.84-1.29,1.71-1.89,2.62l8.22,5.62q-1.12.41-2.25.93L44,32.69c-.24-.15-.75-.1-1.52.2A2.46,2.46,0,0,0,41,34a1.76,1.76,0,0,0-.15,1.3,11,11,0,0,1,1.42-1.1,1.31,1.31,0,0,1,1.34-.13A1.12,1.12,0,0,1,44.17,34.77Z"/><path class="cls-3" d="M54.48,18l.55.8.53-.34a5.81,5.81,0,0,1,3.18-1,2.17,2.17,0,0,1,2.1,1.05A1.8,1.8,0,0,1,61,19.83a2.12,2.12,0,0,1-1.12,1.26,4.8,4.8,0,0,1-1.57.59,1.09,1.09,0,0,1-1.21-.38,1,1,0,0,1,0-.82,1.16,1.16,0,0,1,.58-.77,3.29,3.29,0,0,1,1.59-.6c0-.08-.21-.14-.51-.19a3.27,3.27,0,0,0-2,.68,4.86,4.86,0,0,0-.75.54l4.14,6c-.51-.09-1-.17-1.57-.23-.68-.39-1.11-.6-1.29-.68a8.26,8.26,0,0,0-1.44-.38,3,3,0,0,0-1.46.21A2.53,2.53,0,0,1,53.44,27a2.66,2.66,0,0,1-1.33.72A1.23,1.23,0,0,1,51,27.41a1.21,1.21,0,0,1-.29-1.25,3.05,3.05,0,0,1,.94-1.49l.08,0a.61.61,0,0,0-.13-.22,1,1,0,0,0-.87-.24,1.54,1.54,0,0,0-1,.44,1.18,1.18,0,0,0-.3.46.81.81,0,0,1,.15.48A2,2,0,0,1,49,27.4a2.67,2.67,0,0,1-1.36,1,1.35,1.35,0,0,1-1.27-.17,1.45,1.45,0,0,1-.23-2,1.21,1.21,0,0,0,.28-.37,2.06,2.06,0,0,0-.71.17l-.32.06c-.51.63-1,1.28-1.49,1.94q-1.23.49-2.46,1.11a41.33,41.33,0,0,1,16.72-14.9c1,.06,1.89.14,2.81.26A43,43,0,0,0,54.48,18Zm-.2,3.49a7.35,7.35,0,0,1-3.61,1.15A3.34,3.34,0,0,1,49,22.27c-.69.64-1.36,1.31-2,2a7.15,7.15,0,0,1,.75.1s.18-.1.49-.34a5.41,5.41,0,0,1,4.76-1,2,2,0,0,1,.92.51,5.53,5.53,0,0,1,1.92-.12ZM52.6,19.27c-.68.5-1.34,1-2,1.56,0,0,.1,0,.17.1a.69.69,0,0,0,.73.28A4.78,4.78,0,0,0,53,20.36l.27-.2Z"/><path class="cls-3" d="M61.78,13.58l-.18-.27a15,15,0,0,1-1.18-2.22c.54,0,1.07,0,1.6.08a3,3,0,0,0,.78.81,2.42,2.42,0,0,0,.42.12l1-.35c.91.19,1.8.41,2.68.66-1,.27-2,.58-3,.92q1.83,4.77,3.67,9.52c-.73-.26-1.48-.51-2.25-.73-1-2.15-1.93-4.31-2.89-6.47a1.78,1.78,0,0,0-.31-.42,1.57,1.57,0,0,0-1.13-.4,3.31,3.31,0,0,0-1.52.32l-.46.23c-.88-.06-1.77-.08-2.67-.08.88-.57,1.55-.94,2-1.15A4.72,4.72,0,0,1,61.78,13.58Z"/><path class="cls-3" d="M63.42,7.8a1.92,1.92,0,0,1,.9-.47,2.56,2.56,0,0,1,1.36-.07c-.61.43-.86.77-.79,1s.3.27.72.31a2.88,2.88,0,0,0,1.12-.07c.13,0,.76-.2,1.9-.51,1.34-.37,2.09-.53,2.25-.56a11.81,11.81,0,0,1,4.47-.13c1.58.42,2.35,1.13,2.36,2l1.05,0Q80,10,81.1,10.7a48.05,48.05,0,0,0-8.3.48c.08.11.37.18.87.22a9.88,9.88,0,0,1,1.53.2,4.05,4.05,0,0,1,1.7.84,2.06,2.06,0,0,1,.89,1.85c-.16,1.29-1.35,2.21-3.42,3a6.76,6.76,0,0,1,1.75.48,12.12,12.12,0,0,1,1.63.78c.68.42,1.34.85,2,1.31.24.74.46,1.5.67,2.25a13.64,13.64,0,0,0-10.64-3.59,39,39,0,0,0-3.06-2.44,18.43,18.43,0,0,0,5-.07,6.27,6.27,0,0,0,1.26-.33c.63-.25,1-.42,1.26-.53a3.72,3.72,0,0,0,1-.79.44.44,0,0,0,.1-.38,1.1,1.1,0,0,0-.51-.81,1.69,1.69,0,0,0-1.21-.23l-.37.07a2.34,2.34,0,0,1-1.07,1.49,3.62,3.62,0,0,1-1.62.73,3.23,3.23,0,0,1-1.45,0,1,1,0,0,1-.81-.64,1.35,1.35,0,0,1,.17-1,2.45,2.45,0,0,1,.88-.9,3.76,3.76,0,0,1,1.13-.63,2.93,2.93,0,0,1,.66-.24c-.08,0-.37-.09-.86-.22a45.94,45.94,0,0,0-4.62,1.17c-.88-.22-1.78-.41-2.7-.58a49.4,49.4,0,0,1,12-2.74,1.74,1.74,0,0,0,.73-.41l.06,0A2.36,2.36,0,0,0,75,8.82a5.34,5.34,0,0,0-1.56,0,28,28,0,0,0-3.15.6l-1.12.28a11.6,11.6,0,0,1-4.22.25c-1-.16-1.57-.47-1.76-1A1.22,1.22,0,0,1,63.42,7.8Z"/><path class="cls-3" d="M103.64,17.1l-5.46,8.53c-.09-.48-.19-.95-.3-1.42a17.73,17.73,0,0,0,0-2.76,7.92,7.92,0,0,0-.47-1.19,5.23,5.23,0,0,1-3.55-.11,7.26,7.26,0,0,1-3.08-2.21,13.21,13.21,0,0,1-1.12-1.72,12.61,12.61,0,0,1-.94-2.45,13.46,13.46,0,0,1-.58-2.49c.55.24,1.09.5,1.62.76.28,1,.44,1.57.53,1.84a4.82,4.82,0,0,0,.89,1.76,19.19,19.19,0,0,0,1.44,1.53,5.93,5.93,0,0,0,2,1.09c1.26.42,2,.29,2.43-.5a1.63,1.63,0,0,0,.13-.82,1.13,1.13,0,0,0-.36-.87.47.47,0,0,0-.2-.12,3.16,3.16,0,0,0-.49.17,2.38,2.38,0,0,1-1.76,0,3.75,3.75,0,0,1-1.53-.95,1.24,1.24,0,0,1-.45-1.23c.19-.62.79-.92,1.8-.85a5.22,5.22,0,0,1,1.27.26,5.52,5.52,0,0,1,3.43,3,2.7,2.7,0,0,1,0,2.73c.11.45.2.9.29,1.35L101.65,16A45.92,45.92,0,0,0,88.12,11.4c-.67-.59-1.36-1.17-2.09-1.73a47.14,47.14,0,0,1,19.13,6.69c.42.83.82,1.66,1.18,2.49C105.46,18.23,104.56,17.65,103.64,17.1Z"/><path class="cls-3" d="M107.27,18.87l.15-.29a14.84,14.84,0,0,1,1.4-2.1c.26.46.5.92.74,1.39a2.83,2.83,0,0,0-.34,1.06,1.65,1.65,0,0,0,.12.41l.82.69c.29.87.55,1.75.77,2.62-.75-.73-1.54-1.42-2.35-2.08L101.9,28.4c-.13-.75-.3-1.5-.49-2.26l4.34-5.67A1.8,1.8,0,0,0,106,20a1.45,1.45,0,0,0-.21-1.15,3.09,3.09,0,0,0-1.06-1.1l-.44-.28c-.4-.76-.83-1.52-1.28-2.26a21.86,21.86,0,0,1,2,1.05A4.55,4.55,0,0,1,107.27,18.87Z"/><path class="cls-3" d="M109.6,27a7.77,7.77,0,0,0-1.25.88c-.82.76-1,1.83-.59,3.25a.71.71,0,0,0,.29.42c0,.05,0,.09,0,.1s-.28,0-.59-.24a3.3,3.3,0,0,0,.32.36.77.77,0,0,1,0-.15s0-.13,0-.26A1.22,1.22,0,0,1,108,30.3c.38-.32.91-.3,1.58.1a2.31,2.31,0,0,1,.72.62,1.68,1.68,0,0,1,.37,1,1.29,1.29,0,0,1-.44,1.54,1.49,1.49,0,0,1-1.48.08,3.57,3.57,0,0,1-1.49-1.16,4.65,4.65,0,0,1-1.07-3.75,5.33,5.33,0,0,1,1.48-3c1.07-1.09,2.7-1.61,5-1.22-.92-1-1.88-1.95-2.88-2.84q-.39-1.29-.87-2.58a40.72,40.72,0,0,1,7.73,8c.09.88.16,1.74.2,2.61C114.09,26.47,111.47,25.87,109.6,27Z"/><path class="cls-3" d="M122.21,42.74l-9.56,2.62c.28-.8.54-1.61.77-2.44l5-1.7c.2-.07.35-.32.44-.77a2.27,2.27,0,0,0-.06-1.22,1,1,0,0,0-.49-.61c-.21-.08-.57.07-1.09.45-.33-.51-.67-1-1-1.49.36.07.58,0,.68-.28a4.75,4.75,0,0,0,.3-1,3.77,3.77,0,0,0-.45-2A3,3,0,0,0,115.52,33a1.15,1.15,0,0,0-1.23-.07c-.37.24-.48.64-.34,1.23a1.31,1.31,0,0,1,.28-.24,1,1,0,0,1,1.06.08,2.54,2.54,0,0,1,1,1.13,2.15,2.15,0,0,1,0,2.25c-.34.52-.66.74-.94.7a2.93,2.93,0,0,1-2-1.85,6.82,6.82,0,0,1-.87-3.13,2.55,2.55,0,0,1,1-2.19,2.34,2.34,0,0,1,2.1-.32,3.83,3.83,0,0,1,2.27,2,5.62,5.62,0,0,1,.74,3.38c0,.06,0,.13,0,.19a2.74,2.74,0,0,1,1.58,1.71,4.45,4.45,0,0,1,.23,1.93c-.07.25-.14.48-.22.69a.76.76,0,0,1,0,.15l1.33-.45a40.59,40.59,0,0,0-5.45-11.5c-.08-1-.21-1.93-.36-2.89a42.21,42.21,0,0,1,8,17.45c-.25,1.07-.53,2.13-.84,3.19C122.72,45.15,122.48,43.93,122.21,42.74Z"/><path class="cls-3" d="M123.58,47.63l.31-.12a12.71,12.71,0,0,1,2.43-.59c-.14.62-.29,1.25-.45,1.87a2.63,2.63,0,0,0-1,.65,2.54,2.54,0,0,0-.21.46l.09,1.38c-.41,1-.85,2.08-1.31,3.11q0-2.09-.15-4.08l-10.1.95c.43-.8.84-1.61,1.23-2.44l7-1.12a1.51,1.51,0,0,0,1.13-1.4,4.9,4.9,0,0,0,0-1.87c0-.11-.06-.32-.12-.61.23-1,.45-2,.62-3a23,23,0,0,1,.73,2.57A6.54,6.54,0,0,1,123.58,47.63Z"/><path class="cls-1" d="M83,27.51c-3.2,1.34-7.23,3.7-8.92,7-1.59,3.08-1,7.08-.48,10.37A8.34,8.34,0,0,1,72.91,50a8.22,8.22,0,0,0-.27,3.82c.49,4.73,4.51,8.66,7.89,11.44,0,0-.27-4.63,2-7.48,0,0,3.88-4.28,4.42-7.63a10,10,0,0,0-.68-6.28c-.75-1.71-1.47-3.45-2.33-5.11a19,19,0,0,1-2.09-4.8S81.14,30.08,83,27.51Z"/><path class="cls-2" d="M82.65,26.73c-2.64,1.11-7.37,3.54-9.34,7.34-1.7,3.3-1.18,7.36-.56,10.91a7.67,7.67,0,0,1-.61,4.65,8.75,8.75,0,0,0-.34,4.23c.53,5.16,4.93,9.33,8.19,12l1.49,1.23-.11-1.93s-.22-4.35,1.86-6.9c.13-.15,4-4.47,4.6-8l0,.1a10.73,10.73,0,0,0-.72-6.84l-.35-.81c-.62-1.44-1.26-2.93-2-4.36-.18-.35-.37-.71-.56-1a12.58,12.58,0,0,1-1.46-3.52s-.65-3.53,1-5.76l1.73-2.42Zm-1.58,7.35a14.05,14.05,0,0,0,1.62,4c.18.33.37.68.54,1,.71,1.38,1.34,2.85,2,4.26l.36.81a9.27,9.27,0,0,1,.64,5.71V50c-.5,3.07-4.18,7.16-4.22,7.2-2.51,3.1-2.27,7.9-2.25,8.1l1.38-.7c-3-2.5-7.12-6.34-7.59-10.88a7.29,7.29,0,0,1,.21-3.39,9.43,9.43,0,0,0,.73-5.62c-.58-3.27-1.07-7,.39-9.83,1.79-3.46,6.54-5.74,8.5-6.56l-1-1.27C80.26,29.85,81,33.91,81.07,34.08Z"/><rect class="cls-3" x="54.96" y="50.64" width="10.99" height="2.53"/><rect class="cls-3" x="92.04" y="50.64" width="10.77" height="2.53"/><rect class="cls-3" x="77.81" y="67.68" width="2.53" height="7.66"/><rect class="cls-3" x="86.98" y="37.41" width="10.23" height="2.53" transform="translate(-0.37 76.44) rotate(-45)"/><rect class="cls-3" x="60.6" y="63.48" width="10.32" height="2.53" transform="translate(-26.52 65.46) rotate(-45)"/><rect class="cls-3" x="64.5" y="33.71" width="2.53" height="10.08" transform="translate(-8.14 57.86) rotate(-45)"/><rect class="cls-3" x="90.8" y="59.26" width="2.53" height="10.68" transform="translate(-18.72 84.02) rotate(-45)"/><path class="cls-3" d="M56.84,97.52a106.36,106.36,0,0,0-9.29,24c-.78,3.07-1.28,5.13-1.58,6.49a27.45,27.45,0,0,1,4.12.95,59.29,59.29,0,0,1,6.41-8C57.11,113.05,57.84,100.74,56.84,97.52Z"/><path class="cls-2" d="M56.11,97.1a108.38,108.38,0,0,0-9.38,24.24c-.72,2.85-1.26,5-1.59,6.5l-.2.9.91.12a29.24,29.24,0,0,1,4,.92l.62.19.34-.55a57.34,57.34,0,0,1,6.31-7.86l.2-.22,0-.29c.7-9.06,1.31-20.55.31-23.78l-.58-1.86Zm-.23,23.31a59.63,59.63,0,0,0-6.51,8.13l1-.37a28.51,28.51,0,0,0-4.26-1l.71,1c.33-1.45.86-3.63,1.58-6.47a107.12,107.12,0,0,1,9.2-23.81L56,97.77c.72,2.29.58,10.73-.37,23.15Z"/><path class="cls-3" d="M48.44,129.13l.71-.23s.05.18.14.42l.35.08c-.24-1.18-.78-3.51-1.86-7.77a106.33,106.33,0,0,0-9.29-24c-.89,2.87-.41,12.94.13,20.72,2.23,2.31,6.73,7.19,8.5,10.51Z"/><path class="cls-2" d="M48.7,129.93l.71-.23-1.07-.54s.06.19.15.43l.15.45.46.1.35.08,1.27.29-.26-1.28c-.27-1.36-.9-4-1.86-7.81a108.17,108.17,0,0,0-9.38-24.23l-1-1.69-.58,1.85c-.74,2.39-.71,9.47.1,21l0,.3.22.22c1.92,2,6.58,7,8.35,10.32l.18.34.38.09,1.33.3.22.05Zm-.84-1.5c-1.87-3.52-6.66-8.65-8.63-10.7l.23.53c-.77-11-.83-18.28-.17-20.41L37.75,98A106.28,106.28,0,0,1,47,121.83c1,3.8,1.58,6.4,1.85,7.73l1-1-.35-.08.61.55-.13-.4-.26-.8-.81.26-.7.22.45,0L47.3,128Z"/><path class="cls-3" d="M47.9,127.86l2.71.3,2.1-3.66S49.87,99,47.4,94.56A106.5,106.5,0,0,0,43.21,120c-.11,2.71-.18,4.65-.21,6Z"/><path class="cls-2" d="M47.81,128.7l2.71.3.55.06.28-.48,2.09-3.66.14-.24,0-.27c-.12-1-2.89-25.72-5.41-30.26l-1-1.7-.6,1.85a108.71,108.71,0,0,0-4.22,25.64c-.11,2.5-.18,4.53-.21,6l0,.6.56.21,4.91,1.85.1,0Zm-4-2.67c0-1.51.1-3.53.2-6A106.91,106.91,0,0,1,48.2,94.82L46.66,95c1.89,3.39,4.23,20.86,5.21,29.62l.1-.51-2.09,3.66.82-.42L48,127l.2,0-4.9-1.86Z"/><path class="cls-3" d="M32.57,106.17s2.82,24.09,14.66,24.75l.41-.66S46.16,121.92,32.57,106.17Z"/><path class="cls-3" d="M62.57,106.17s-2.82,24.09-14.66,24.75l-.41-.66S49,121.92,62.57,106.17Z"/><path class="cls-2" d="M61.93,105.62c-9.21,10.68-12.91,18-14.36,21.66-1.45-3.7-5.15-11-14.36-21.66l-1.8-2.09.32,2.74c.12,1,2.85,23.17,14.2,25.33v6.08h3.26v-6.07c11.36-2.15,14.1-24.36,14.22-25.34l.32-2.74Zm-28,3.43C43.76,121,46.21,128.22,46.7,130v0C38.53,128.93,35.05,115.23,33.89,109.05Zm14.56,21v0c.48-1.76,2.94-9,12.81-20.93C60.09,115.23,56.61,128.93,48.45,130Z"/><path class="cls-3" d="M63.66,135.44a4.68,4.68,0,0,0-2.28.7,5,5,0,0,1-4.57,0c-3-1.92-6.76-.13-6.91-.06a4.27,4.27,0,0,1-4.44,0l0,0-.06,0c-2.54-1.47-6-.28-6.13-.22l-.06,0-.06,0a6,6,0,0,1-4.78.28,7.36,7.36,0,0,0-2.69-.94v2.07a4.67,4.67,0,0,1,1.61.57l.1.08.12.06a8.19,8.19,0,0,0,6.55-.31l-.11,0s2.7-.93,4.43.06a6.25,6.25,0,0,0,6.46.12s2.85-1.35,5,0a7.17,7.17,0,0,0,6.7-.09,2.57,2.57,0,0,1,1.16-.37Z"/><path class="cls-3" d="M63.66,140a4.6,4.6,0,0,0-2.28.69,5,5,0,0,1-4.57,0c-3-1.92-6.76-.13-6.91-.06a4.27,4.27,0,0,1-4.44,0l0,0-.06,0c-2.54-1.47-6-.28-6.13-.22l-.06,0-.06,0a6,6,0,0,1-4.78.28,7.55,7.55,0,0,0-2.69-.94v2.07a4.67,4.67,0,0,1,1.61.57l.1.08.12.06a8.19,8.19,0,0,0,6.55-.31l-.11,0s2.7-.93,4.43.06a6.25,6.25,0,0,0,6.46.12s2.85-1.35,5,0a7.17,7.17,0,0,0,6.7-.09,2.57,2.57,0,0,1,1.16-.37Z"/><path class="cls-3" d="M114.27,116.61v11.27l-.94-1.2c-.27-.67-.69-1.56-1.26-2.68a11.58,11.58,0,0,0-.84-1,3.4,3.4,0,0,1-2.81,1.43,4.56,4.56,0,0,1-3.12-1.3A9.73,9.73,0,0,1,104,121.6a11.42,11.42,0,0,1-1.17-2.48,15.84,15.84,0,0,1-.81-2.64l1.28.5q.54,1.47.72,1.89a5.1,5.1,0,0,0,1,1.69,10.27,10.27,0,0,0,1.48,1.2,3.34,3.34,0,0,0,1.89.42c1.09-.06,1.64-.57,1.64-1.54a2.62,2.62,0,0,0-.18-.91,1.26,1.26,0,0,0-.54-.74.24.24,0,0,0-.18,0,3.36,3.36,0,0,0-.29.37,1.48,1.48,0,0,1-1.28.67,2.2,2.2,0,0,1-1.38-.49,1.52,1.52,0,0,1,.46-2.67,2.75,2.75,0,0,1,1-.17,4.4,4.4,0,0,1,4.2,4.41l.74,1.2v-5.66h-10.5L100.4,115h14.48l1.73,1.58Z"/><path class="cls-3" d="M130.8,117.86l-13.31-11.67c-4.64-4.34-10.92-2.84-10.92-2.84-3.9,0-7.44,3.19-10.15,5.67-3.87,3.55-7.94,6.84-12,10.19l14.81,12.71a15.61,15.61,0,0,0,8.51,3.73c4,.28,7.77-1.44,10.88-3.78,5.06-3.79,9.51-8.36,14.27-12.51Zm-22.14,12.92a11.39,11.39,0,1,1,11.39-11.39A11.38,11.38,0,0,1,108.66,130.78Z"/><path class="cls-2" d="M131.36,117.23,118,105.56c-4.89-4.58-11.39-3.09-11.67-3l.2,0c-4.3,0-8.16,3.54-10.72,5.88-3.27,3-6.75,5.88-10.12,8.65l-1.84,1.52-.77.64.76.65,14.81,12.71a16.46,16.46,0,0,0,9,3.94c3.7.26,7.66-1.11,11.45-3.95a124,124,0,0,0,9.46-8.16c1.58-1.46,3.21-3,4.85-4.39l.81-.71-.87-.62Zm1,1.49c-1.65,1.45-3.3,3-4.88,4.43-3,2.75-6.06,5.59-9.33,8-2.42,1.81-6.17,3.9-10.32,3.61a14.65,14.65,0,0,1-8-3.53L85,118.57l0,1.29,1.84-1.51c3.39-2.79,6.89-5.68,10.19-8.71,2.51-2.3,5.94-5.44,9.58-5.44h.09l.1,0c.06,0,5.91-1.32,10.15,2.64l13.34,11.69,2.15,1.55Z"/></g></g></svg>