<svg xmlns="http://www.w3.org/2000/svg" viewBox="0 0 200 200"><defs><style>.cls-1{fill:#fff;}</style></defs><g id="Layer_2" data-name="Layer 2"><g id="Layer_1-2" data-name="Layer 1"><path class="cls-1" d="M188.89,0H11.11A11.11,11.11,0,0,0,0,11.11V188.89A11.12,11.12,0,0,0,11.11,200H188.89A11.11,11.11,0,0,0,200,188.89V11.11A11.1,11.1,0,0,0,188.89,0ZM166.67,55.56H152c-9.74,0-13.14,9.22-13.14,19.63v13.7H164.2l-3.43,22.22H138.89v61.11H111.11V111.11H88.89V88.89h22.22V71.46c0-26.33,13.36-37.88,36.15-37.88a137,137,0,0,1,19.41,1.12Z"/></g></g></svg>