<svg xmlns="http://www.w3.org/2000/svg" viewBox="0 0 200 200"><defs><style>.cls-1{fill:#fff;}</style></defs><g id="Layer_2" data-name="Layer 2"><g id="Layer_1-2" data-name="Layer 1"><path class="cls-1" d="M97.54,93.3c0,14.22-9.69,23.69-25.78,23.69-6,0-8.71-.16-12.89-.49V71.32c4.18-.44,9.64-.44,14.49-.44C88.51,70.88,97.54,78.76,97.54,93.3Z"/><path class="cls-1" d="M188.89,0H11.11A11.11,11.11,0,0,0,0,11.11V188.89A11.12,11.12,0,0,0,11.11,200H188.89A11.11,11.11,0,0,0,200,188.89V11.11A11.1,11.1,0,0,0,188.89,0ZM132.36,175.56c-4.19,1.93-21.43,3.85-32.23-9.2-5.95-6.94-16.42-21.65-27.38-41.32-5.78,0-9.53,0-13.88-.28v30c0,15.15,3.91,13.72,16.8,15.48v5.35c-4.52-.33-15-.66-23.08-.66-8.54,0-16.92.49-21.76.66v-5.35c10-1.92,14.15-.82,14.15-15.48V83.83c0-14.49-4.18-13.56-14.15-15.48V63.17c16.63.6,34.32-.5,45.94-.5,20.44,0,36.09,9.37,36.09,29.7,0,13.55-10.85,27.27-25.34,30.79a213.14,213.14,0,0,0,27.27,38c4.68,5.18,11.13,9.53,17.57,9.53ZM147,84.49c-15,0-20.77-10.19-20.77-20.83V42.73c0-7.94,5.62-19.67,22.1-19.67,16.3,0,19.66,11.62,19.55,11.57l-6.94,4.68s-3.52-8-12.72-8C143,31.27,135.45,36,135.45,44V61.4c0,8.71,4.19,15,11.46,15,9.2,0,14.05-6.94,14.05-17.24H149.39V52.2h19.67C169.06,65.43,172.14,84.49,147,84.49Z"/></g></g></svg>